<svg width="88" height="60" viewBox="0 0 88 60" fill="none" xmlns="http://www.w3.org/2000/svg">
<path d="M87.7991 50.7829C87.6238 50.5634 87.3582 50.4352 87.0769 50.4352H81.8734V5.31144C81.8734 2.38319 79.4911 0 76.5619 0H11.4393C8.51015 0 6.12788 2.38226 6.12788 5.31144V50.4343H0.922499C0.641202 50.4343 0.375585 50.5625 0.20035 50.7829C0.0260382 51.0024 -0.0394436 51.2902 0.0232719 51.5641C0.097977 51.885 1.89736 59.4127 7.32409 59.4127H43.9997H80.6781C86.1048 59.4127 87.9024 51.885 87.9771 51.5641C88.0389 51.2902 87.9743 51.0033 87.7991 50.7829ZM7.97245 5.31144C7.97245 3.39955 9.52835 1.84457 11.4393 1.84457H76.5629C78.4748 1.84457 80.0297 3.39955 80.0297 5.31144V50.4343H54.523C54.2325 50.4343 53.9595 50.5708 53.7852 50.8032L52.9653 51.897H43.9997H35.0369L34.217 50.8032C34.0427 50.5708 33.7697 50.4343 33.4792 50.4343H7.97245V5.31144ZM80.6781 57.5682H43.9997H7.32409C4.4069 57.5682 2.8095 54.1225 2.16482 52.2798H33.0181L33.838 53.3736C34.0123 53.606 34.2853 53.7425 34.5758 53.7425H43.9997H53.4264C53.7169 53.7425 53.9899 53.606 54.1642 53.3736L54.9841 52.2798H85.8355C85.1908 54.1225 83.5944 57.5682 80.6781 57.5682Z" fill="#636569"/>
<path d="M78.2092 48.9217V4.84379C78.2092 4.33469 77.796 3.92151 77.2869 3.92151H10.7153C10.2062 3.92151 9.79306 4.33469 9.79306 4.84379V48.9217C9.79306 49.4317 10.2062 49.844 10.7153 49.844H77.2869C77.796 49.844 78.2092 49.4317 78.2092 48.9217ZM76.3646 47.9994H11.6376V5.76608H76.3646V47.9994Z" fill="#636569"/>
</svg>
