<svg width="86" height="60" viewBox="0 0 86 60" fill="none" xmlns="http://www.w3.org/2000/svg">
<path d="M80.9844 24.4534C79.2242 24.4534 77.7966 25.8977 77.7966 27.6785C77.7966 27.9449 77.8313 28.1973 77.8937 28.4427C73.9505 30.3427 66.9236 34.346 57.3465 42.2125C57.3465 42.2125 62.322 22.1608 65.3504 15.5143L65.6763 14.2103C65.9258 14.2734 66.189 14.3154 66.4593 14.3154C68.2195 14.3154 69.6471 12.8711 69.6471 11.0903C69.6471 9.30953 68.2195 7.86524 66.4593 7.86524C64.6991 7.86524 63.2714 9.30953 63.2714 11.0903C63.2714 11.8125 63.5072 12.4715 63.9022 13.0114L63.4031 13.4741C63.4031 13.4741 49.9868 32.2427 47.7484 38.2302L42.7797 8.27187C44.2904 8.01948 45.4407 6.6944 45.4407 5.08887C45.4407 3.30805 44.0131 1.86377 42.2528 1.86377C40.4926 1.86377 39.0653 3.30805 39.0653 5.08887C39.0653 6.70842 40.2434 8.04753 41.7818 8.27889L37.3606 38.097C37.3606 38.097 26.9654 21.5579 21.3175 14.5748C21.9481 13.9859 22.3431 13.1446 22.3431 12.2051C22.3431 10.4243 20.9158 8.98 19.1556 8.98C17.3954 8.98 15.9678 10.4243 15.9678 12.2051C15.9678 13.9859 17.3954 15.4302 19.1556 15.4302C19.4467 15.4302 19.7237 15.3881 19.987 15.318C22.3848 22.4342 27.6309 38.4545 27.6309 42.3597C27.6309 42.3597 16.3281 32.2497 7.42309 28.6671C7.52011 28.3586 7.57536 28.0291 7.57536 27.6855C7.57536 25.9047 6.14806 24.4604 4.38786 24.4604C2.62765 24.4604 1.20001 25.9047 1.20001 27.6855C1.20001 29.4663 2.62765 30.9106 4.38786 30.9106C5.15015 30.9106 5.8429 30.6442 6.39037 30.1955C11.8512 34.7457 21.8444 44.7575 24.4847 58.8638H59.8691C59.8691 58.8638 66.8404 35.8324 78.5451 30.3778L78.8361 30.0413C79.4043 30.5811 80.1667 30.9106 81.0122 30.9106C82.7724 30.9106 84.2 29.4663 84.2 27.6855C84.2 25.9047 82.7724 24.4604 81.0122 24.4604L80.9844 24.4534Z" stroke="#636569" stroke-width="2" stroke-linecap="round" stroke-linejoin="round"/>
</svg>
